<?xml version="1.0" encoding="UTF-8"?>
<svg id="X" xmlns="http://www.w3.org/2000/svg" viewBox="0 0 806.56 807">
  <defs>
    <style>
      .cls-1 {
        fill: #231f20;
      }
    </style>
  </defs>
  <path class="cls-1" d="M483.46,351.4l-4.58-6.65-27.83-40.51-4.58-6.65L246.78,7.04H16.62l301.91,439.29,4.58,6.65,27.83,40.51,4.58,6.65,204.24,297.18h230.16l-306.48-445.93ZM401.11,468.81l-12.85-18.7-19.57-28.45-12.85-18.71L121.76,62.36h95.93l187.77,273.22,3.7,5.37,28.72,41.77,3.7,5.39,243.22,353.89h-95.93l-187.76-273.2Z"/>
  <polygon class="cls-1" points="368.7 421.66 388.26 450.11 350.95 493.5 345.22 500.15 89.6 797.33 16.62 797.33 312.81 452.99 318.53 446.33 355.84 402.95 368.7 421.66"/>
  <polygon class="cls-1" points="769.36 7.04 478.88 344.75 473.16 351.4 441.58 388.12 437.88 382.73 409.16 340.95 440.74 304.24 446.46 297.58 696.38 7.04 769.36 7.04"/>
</svg>