<?xml version="1.0" encoding="UTF-8"?>
<svg id="Sun" xmlns="http://www.w3.org/2000/svg" viewBox="0 0 806.56 807">
  <defs>
    <style>
      .cls-1 {
        fill: #231f20;
      }

      .cls-2 {
        fill: none;
        stroke: #231f20;
        stroke-linecap: round;
        stroke-miterlimit: 10;
        stroke-width: 38px;
      }
    </style>
  </defs>
  <path class="cls-1" d="M403.28,255.64c39.5,0,76.63,15.38,104.55,43.31s43.31,65.06,43.31,104.55-15.38,76.63-43.31,104.55c-27.93,27.93-65.06,43.31-104.55,43.31s-76.63-15.38-104.55-43.31-43.31-65.06-43.31-104.55,15.38-76.63,43.31-104.55c27.93-27.93,65.06-43.31,104.55-43.31M403.28,217.64c-102.65,0-185.86,83.21-185.86,185.86s83.21,185.86,185.86,185.86,185.86-83.21,185.86-185.86-83.21-185.86-185.86-185.86h0Z"/>
  <line class="cls-2" x1="403.28" y1="19.22" x2="403.28" y2="139.22"/>
  <line class="cls-2" x1="675" y1="131.77" x2="590.15" y2="216.63"/>
  <line class="cls-2" x1="787.56" y1="403.5" x2="667.56" y2="403.5"/>
  <line class="cls-2" x1="675" y1="675.23" x2="590.15" y2="590.37"/>
  <line class="cls-2" x1="403.28" y1="787.78" x2="403.28" y2="667.78"/>
  <line class="cls-2" x1="131.55" y1="675.23" x2="216.41" y2="590.37"/>
  <line class="cls-2" x1="19" y1="403.5" x2="139" y2="403.5"/>
  <line class="cls-2" x1="131.55" y1="131.77" x2="216.41" y2="216.63"/>
</svg>