<?xml version="1.0" encoding="UTF-8"?>
<svg id="Insta" xmlns="http://www.w3.org/2000/svg" viewBox="0 0 806.56 807">
  <defs>
    <style>
      .cls-1, .cls-2 {
        fill: #231f20;
      }

      .cls-2 {
        stroke: #231f20;
        stroke-miterlimit: 10;
        stroke-width: 31px;
      }
    </style>
  </defs>
  <path class="cls-1" d="M628.45,798.29H178.1c-93.53,0-169.62-76.09-169.62-169.62V178.33C8.49,84.8,84.58,8.71,178.1,8.71h450.35c93.53,0,169.62,76.09,169.62,169.62v450.35c0,93.53-76.09,169.62-169.62,169.62ZM178.1,61.71c-64.3,0-116.62,52.32-116.62,116.62v450.35c0,64.3,52.32,116.62,116.62,116.62h450.35c64.3,0,116.62-52.32,116.62-116.62V178.33c0-64.3-52.32-116.62-116.62-116.62H178.1Z"/>
  <circle class="cls-2" cx="619.81" cy="185.79" r="27.22"/>
  <path class="cls-1" d="M403.28,606.24c-111.79,0-202.74-90.95-202.74-202.74s90.95-202.74,202.74-202.74,202.74,90.95,202.74,202.74-90.95,202.74-202.74,202.74ZM403.28,252.76c-83.12,0-150.74,67.62-150.74,150.74s67.62,150.74,150.74,150.74,150.74-67.62,150.74-150.74-67.62-150.74-150.74-150.74Z"/>
</svg>



