<?xml version="1.0" encoding="UTF-8"?>
<svg id="Layer_6" xmlns="http://www.w3.org/2000/svg" viewBox="0 0 806.56 807">
  <defs>
    <style>
      .cls-1 {
        fill: #231f20;
        stroke: #231f20;
        stroke-linecap: round;
        stroke-linejoin: round;
        stroke-width: 11px;
      }
    </style>
  </defs>
  <path class="cls-1" d="M314.9,5.5c-65.3,0-126.93,15.72-181.31,43.59-13.79,7.08-27.13,14.93-39.93,23.52,14.6,2.94,28.99,6.85,43.12,11.73,7.18,2.48,14.29,5.2,21.33,8.18,40.18,17,76.27,41.34,107.27,72.34s55.35,67.1,72.35,107.29c17.58,41.59,26.5,85.78,26.5,131.35s-8.91,89.77-26.5,131.36c-17,40.18-41.34,76.27-72.35,107.29-31,31-67.09,55.34-107.27,72.34-7.04,2.98-14.16,5.7-21.34,8.17-14.12,4.89-28.5,8.8-43.11,11.73,12.8,8.59,26.14,16.44,39.93,23.52,54.38,27.87,116.01,43.59,181.31,43.59,219.82,0,398-178.18,398-398S534.72,5.5,314.9,5.5ZM573.3,661.9c-33.57,33.56-72.65,59.92-116.16,78.32-45.03,19.05-92.88,28.7-142.23,28.7s-94.32-9.08-138.16-27.01c129.65-57.55,220.08-187.41,220.08-338.4S306.4,122.65,176.75,65.11c43.83-17.93,90.28-27.02,138.15-27.02s97.21,9.66,142.23,28.71c43.51,18.4,82.59,44.76,116.16,78.32,33.56,33.57,59.92,72.65,78.32,116.16,19.05,45.03,28.7,92.88,28.7,142.22s-9.65,97.21-28.7,142.23c-18.4,43.51-44.76,82.59-78.32,116.16Z"/>
</svg>