<?xml version="1.0" encoding="UTF-8"?>
<svg xmlns="http://www.w3.org/2000/svg" version="1.1" viewBox="0 0 841.89 841.89">
  <!-- Generator: Adobe Illustrator 28.7.5, SVG Export Plug-In . SVG Version: 1.2.0 Build 176)  -->
  <g>
    <g id="Insta">
      <g>
        <path d="M646.12,815.74H195.77c-93.53,0-169.62-76.09-169.62-169.62V195.77C26.15,102.24,102.24,26.15,195.77,26.15h450.35c93.53,0,169.62,76.09,169.62,169.62v450.35c0,93.53-76.09,169.62-169.62,169.62ZM195.77,79.15c-64.3,0-116.62,52.32-116.62,116.62v450.35c0,64.3,52.32,116.62,116.62,116.62h450.35c64.3,0,116.62-52.32,116.62-116.62V195.77c0-64.3-52.32-116.62-116.62-116.62H195.77Z" fill="#191919" stroke="#191919" stroke-miterlimit="10"/>
        <circle cx="637.48" cy="203.23" r="27.22" fill="#191919" stroke="#191919" stroke-miterlimit="10" stroke-width="31"/>
        <path d="M420.94,623.68c-111.79,0-202.74-90.95-202.74-202.74s90.95-202.74,202.74-202.74,202.74,90.95,202.74,202.74-90.95,202.74-202.74,202.74ZM420.94,270.21c-83.12,0-150.74,67.62-150.74,150.74s67.62,150.74,150.74,150.74,150.74-67.62,150.74-150.74-67.62-150.74-150.74-150.74Z" fill="#191919" stroke="#191919" stroke-miterlimit="10"/>
      </g>
    </g>
    <g id="X" display="none">
      <g>
        <path d="M501.13,368.85l-4.58-6.65-27.83-40.51-4.58-6.65L264.45,24.48H34.29l301.91,439.29,4.58,6.65,27.83,40.51,4.58,6.65,204.24,297.18h230.16l-306.48-445.93ZM418.78,486.25l-12.85-18.7-19.57-28.45-12.85-18.71L139.43,79.81h95.93l187.77,273.22,3.7,5.37,28.72,41.77,3.7,5.39,243.22,353.89h-95.93l-187.76-273.2Z" fill="#231f20"/>
        <polygon points="386.36 439.1 405.93 467.55 368.61 510.94 362.89 517.6 107.26 814.78 34.29 814.78 330.47 470.43 336.19 463.78 373.51 420.39 386.36 439.1" fill="#231f20"/>
        <polygon points="787.02 24.48 496.54 362.19 490.82 368.85 459.24 405.56 455.54 400.17 426.82 358.4 458.4 321.68 464.13 315.03 714.05 24.48 787.02 24.48" fill="#231f20"/>
      </g>
    </g>
    <g id="Linktree" display="none">
      <g>
        <line x1="98.02" y1="334.3" x2="743.87" y2="334.3" fill="none" stroke="#231f20" stroke-miterlimit="10" stroke-width="111"/>
        <line x1="191.35" y1="570.3" x2="642.69" y2="118.96" fill="none" stroke="#231f20" stroke-miterlimit="10" stroke-width="111"/>
        <line x1="190.02" y1="122.3" x2="646.02" y2="578.3" fill="none" stroke="#231f20" stroke-miterlimit="10" stroke-width="111"/>
        <line x1="417.02" y1="24.48" x2="417.02" y2="355.63" fill="none" stroke="#231f20" stroke-miterlimit="10" stroke-width="111"/>
        <line x1="417.02" y1="558.3" x2="417.02" y2="814.42" fill="none" stroke="#231f20" stroke-miterlimit="10" stroke-width="111"/>
      </g>
    </g>
    <g id="Cara" display="none">
      <g>
        <path d="M533.49,455.79c-29.26,32.61-67.22,50.58-106.88,50.58s-77.63-17.96-106.89-50.58c-15.4-17.16-27.56-37.34-36.16-59.99-9.14-24.09-13.78-49.84-13.78-76.53s4.64-52.44,13.78-76.53c8.6-22.66,20.77-42.84,36.16-59.99,29.26-32.61,67.22-50.58,106.89-50.58s77.62,17.96,106.88,50.58c13.32,14.85,24.23,31.96,32.5,50.99h113.81c-32.89-121.09-133.8-209.24-253.18-209.24-146.09,0-264.51,131.98-264.51,294.78s118.42,294.78,264.51,294.78c116.87,0,216.02-84.47,251.02-201.61h-115.15c-7.77,15.99-17.48,30.52-28.99,43.36Z" fill="#231f20"/>
        <line x1="126.16" y1="794.28" x2="715.73" y2="794.28" fill="none" stroke="#231f20" stroke-miterlimit="10" stroke-width="43"/>
      </g>
    </g>
    <g id="Sun" display="none">
      <path d="M420.94,273.08c39.5,0,76.63,15.38,104.55,43.31s43.31,65.06,43.31,104.55-15.38,76.63-43.31,104.55c-27.93,27.93-65.06,43.31-104.55,43.31s-76.63-15.38-104.55-43.31-43.31-65.06-43.31-104.55,15.38-76.63,43.31-104.55c27.93-27.93,65.06-43.31,104.55-43.31M420.94,235.08c-102.65,0-185.86,83.21-185.86,185.86s83.21,185.86,185.86,185.86,185.86-83.21,185.86-185.86-83.21-185.86-185.86-185.86h0Z" fill="#231f20"/>
      <line x1="420.94" y1="36.67" x2="420.94" y2="156.67" fill="none" stroke="#231f20" stroke-linecap="round" stroke-miterlimit="10" stroke-width="38"/>
      <line x1="692.67" y1="149.22" x2="607.82" y2="234.07" fill="none" stroke="#231f20" stroke-linecap="round" stroke-miterlimit="10" stroke-width="38"/>
      <line x1="805.22" y1="420.94" x2="685.22" y2="420.94" fill="none" stroke="#231f20" stroke-linecap="round" stroke-miterlimit="10" stroke-width="38"/>
      <line x1="692.67" y1="692.67" x2="607.82" y2="607.82" fill="none" stroke="#231f20" stroke-linecap="round" stroke-miterlimit="10" stroke-width="38"/>
      <line x1="420.94" y1="805.22" x2="420.94" y2="685.22" fill="none" stroke="#231f20" stroke-linecap="round" stroke-miterlimit="10" stroke-width="38"/>
      <line x1="149.22" y1="692.67" x2="234.07" y2="607.82" fill="none" stroke="#231f20" stroke-linecap="round" stroke-miterlimit="10" stroke-width="38"/>
      <line x1="36.67" y1="420.94" x2="156.67" y2="420.94" fill="none" stroke="#231f20" stroke-linecap="round" stroke-miterlimit="10" stroke-width="38"/>
      <line x1="149.22" y1="149.22" x2="234.07" y2="234.07" fill="none" stroke="#231f20" stroke-linecap="round" stroke-miterlimit="10" stroke-width="38"/>
    </g>
    <g id="Layer_6" display="none">
      <path d="M332.56,22.94c-65.3,0-126.93,15.72-181.31,43.59-13.79,7.08-27.13,14.93-39.93,23.52,14.6,2.94,28.99,6.85,43.12,11.73,7.18,2.48,14.29,5.2,21.33,8.18,40.18,17,76.27,41.34,107.27,72.34s55.35,67.1,72.35,107.29c17.58,41.59,26.5,85.78,26.5,131.35s-8.91,89.77-26.5,131.36c-17,40.18-41.34,76.27-72.35,107.29-31,31-67.09,55.34-107.27,72.34-7.04,2.98-14.16,5.7-21.34,8.17-14.12,4.89-28.5,8.8-43.11,11.73,12.8,8.59,26.14,16.44,39.93,23.52,54.38,27.87,116.01,43.59,181.31,43.59,219.82,0,398-178.18,398-398S552.38,22.94,332.56,22.94ZM590.96,679.34c-33.57,33.56-72.65,59.92-116.16,78.32-45.03,19.05-92.88,28.7-142.23,28.7s-94.32-9.08-138.16-27.01c129.65-57.55,220.08-187.41,220.08-338.4S324.07,140.1,194.42,82.55c43.83-17.93,90.28-27.02,138.15-27.02s97.21,9.66,142.23,28.71c43.51,18.4,82.59,44.76,116.16,78.32,33.56,33.57,59.92,72.65,78.32,116.16,19.05,45.03,28.7,92.88,28.7,142.22s-9.65,97.21-28.7,142.23c-18.4,43.51-44.76,82.59-78.32,116.16Z" fill="#231f20" stroke="#231f20" stroke-linecap="round" stroke-linejoin="round" stroke-width="11"/>
    </g>
    <g id="Layer_7" display="none">
      <g>
        <line x1="436.88" y1="46.15" x2="436.88" y2="795.74" fill="none" stroke="#231f20" stroke-linecap="round" stroke-linejoin="round" stroke-width="38"/>
        <line x1="128.09" y1="354.18" x2="436.12" y2="46.15" fill="none" stroke="#231f20" stroke-linecap="round" stroke-linejoin="round" stroke-width="38"/>
        <line x1="713.8" y1="322.32" x2="437.64" y2="46.15" fill="none" stroke="#231f20" stroke-linecap="round" stroke-linejoin="round" stroke-width="38"/>
      </g>
    </g>
  </g>
</svg>